<mxfile host="app.diagrams.net" modified="2024-06-06T21:05:11.837Z" agent="Mozilla/5.0 (Windows NT 10.0; Win64; x64) AppleWebKit/537.36 (KHTML, like Gecko) Chrome/125.0.0.0 Safari/537.36" etag="6JyENTFxNROsN06ek-8u" version="24.5.1" type="github">
  <diagram name="第 1 页" id="Pdwxk5WYipAvsAS1ubwg">
    <mxGraphModel dx="2049" dy="1054" grid="1" gridSize="10" guides="1" tooltips="1" connect="1" arrows="1" fold="1" page="1" pageScale="1" pageWidth="827" pageHeight="1169" math="0" shadow="0">
      <root>
        <mxCell id="0" />
        <mxCell id="1" parent="0" />
        <mxCell id="1T6ESOc0t_kYryriSd0D-1" value="FileTypeFilter" style="swimlane;fontStyle=1;align=center;verticalAlign=top;childLayout=stackLayout;horizontal=1;startSize=25.818181818181817;horizontalStack=0;resizeParent=1;resizeParentMax=0;resizeLast=0;collapsible=0;marginBottom=0;fontSize=17;" vertex="1" parent="1">
          <mxGeometry x="90" y="30" width="290" height="137.8181818181818" as="geometry" />
        </mxCell>
        <mxCell id="1T6ESOc0t_kYryriSd0D-2" style="line;strokeWidth=1;fillColor=none;align=left;verticalAlign=middle;spacingTop=-1;spacingLeft=3;spacingRight=3;rotatable=0;labelPosition=right;points=[];portConstraint=eastwest;strokeColor=inherit;fontSize=17;" vertex="1" parent="1T6ESOc0t_kYryriSd0D-1">
          <mxGeometry y="25.818181818181817" width="290" height="8" as="geometry" />
        </mxCell>
        <mxCell id="1T6ESOc0t_kYryriSd0D-3" value="+fileTypeFilter(MultipartFile) : void" style="text;strokeColor=none;fillColor=none;align=left;verticalAlign=top;spacingLeft=4;spacingRight=4;overflow=hidden;rotatable=0;points=[[0,0.5],[1,0.5]];portConstraint=eastwest;fontSize=17;" vertex="1" parent="1T6ESOc0t_kYryriSd0D-1">
          <mxGeometry y="33.81818181818181" width="290" height="26" as="geometry" />
        </mxCell>
        <mxCell id="1T6ESOc0t_kYryriSd0D-4" value="-getFileType(MultipartFile) : String" style="text;strokeColor=none;fillColor=none;align=left;verticalAlign=top;spacingLeft=4;spacingRight=4;overflow=hidden;rotatable=0;points=[[0,0.5],[1,0.5]];portConstraint=eastwest;fontSize=17;" vertex="1" parent="1T6ESOc0t_kYryriSd0D-1">
          <mxGeometry y="59.81818181818181" width="290" height="26" as="geometry" />
        </mxCell>
        <mxCell id="1T6ESOc0t_kYryriSd0D-5" value="-getFileTypeBySuffix(String) : String" style="text;strokeColor=none;fillColor=none;align=left;verticalAlign=top;spacingLeft=4;spacingRight=4;overflow=hidden;rotatable=0;points=[[0,0.5],[1,0.5]];portConstraint=eastwest;fontSize=17;" vertex="1" parent="1T6ESOc0t_kYryriSd0D-1">
          <mxGeometry y="85.81818181818181" width="290" height="26" as="geometry" />
        </mxCell>
        <mxCell id="1T6ESOc0t_kYryriSd0D-6" value="-bytesToHexString(byte[]) : String" style="text;strokeColor=none;fillColor=none;align=left;verticalAlign=top;spacingLeft=4;spacingRight=4;overflow=hidden;rotatable=0;points=[[0,0.5],[1,0.5]];portConstraint=eastwest;fontSize=17;" vertex="1" parent="1T6ESOc0t_kYryriSd0D-1">
          <mxGeometry y="111.81818181818181" width="290" height="26" as="geometry" />
        </mxCell>
        <mxCell id="1T6ESOc0t_kYryriSd0D-7" value="CommonUtils" style="swimlane;fontStyle=1;align=center;verticalAlign=top;childLayout=stackLayout;horizontal=1;startSize=24.5;horizontalStack=0;resizeParent=1;resizeParentMax=0;resizeLast=0;collapsible=0;marginBottom=0;fontSize=17;" vertex="1" parent="1">
          <mxGeometry x="80" y="215.32" width="450" height="457.5" as="geometry" />
        </mxCell>
        <mxCell id="1T6ESOc0t_kYryriSd0D-8" value="String databaseType" style="text;strokeColor=none;fillColor=none;align=left;verticalAlign=top;spacingLeft=4;spacingRight=4;overflow=hidden;rotatable=0;points=[[0,0.5],[1,0.5]];portConstraint=eastwest;fontSize=17;" vertex="1" parent="1T6ESOc0t_kYryriSd0D-7">
          <mxGeometry y="24.5" width="450" height="25" as="geometry" />
        </mxCell>
        <mxCell id="1T6ESOc0t_kYryriSd0D-9" value="DbType? databaseTypeEnum" style="text;strokeColor=none;fillColor=none;align=left;verticalAlign=top;spacingLeft=4;spacingRight=4;overflow=hidden;rotatable=0;points=[[0,0.5],[1,0.5]];portConstraint=eastwest;fontSize=17;" vertex="1" parent="1T6ESOc0t_kYryriSd0D-7">
          <mxGeometry y="49.5" width="450" height="25" as="geometry" />
        </mxCell>
        <mxCell id="1T6ESOc0t_kYryriSd0D-10" style="line;strokeWidth=1;fillColor=none;align=left;verticalAlign=middle;spacingTop=-1;spacingLeft=3;spacingRight=3;rotatable=0;labelPosition=right;points=[];portConstraint=eastwest;strokeColor=inherit;fontSize=17;" vertex="1" parent="1T6ESOc0t_kYryriSd0D-7">
          <mxGeometry y="74.5" width="450" height="8" as="geometry" />
        </mxCell>
        <mxCell id="1T6ESOc0t_kYryriSd0D-11" value="+uploadOnlineImage(byte[], String, String, String) : String" style="text;strokeColor=none;fillColor=none;align=left;verticalAlign=top;spacingLeft=4;spacingRight=4;overflow=hidden;rotatable=0;points=[[0,0.5],[1,0.5]];portConstraint=eastwest;fontSize=17;" vertex="1" parent="1T6ESOc0t_kYryriSd0D-7">
          <mxGeometry y="82.5" width="450" height="25" as="geometry" />
        </mxCell>
        <mxCell id="1T6ESOc0t_kYryriSd0D-12" value="+getBaseUrl(HttpServletRequest) : String" style="text;strokeColor=none;fillColor=none;align=left;verticalAlign=top;spacingLeft=4;spacingRight=4;overflow=hidden;rotatable=0;points=[[0,0.5],[1,0.5]];portConstraint=eastwest;fontSize=17;" vertex="1" parent="1T6ESOc0t_kYryriSd0D-7">
          <mxGeometry y="107.5" width="450" height="25" as="geometry" />
        </mxCell>
        <mxCell id="1T6ESOc0t_kYryriSd0D-13" value="+getSplitText(List&lt;String&gt;, String) : String" style="text;strokeColor=none;fillColor=none;align=left;verticalAlign=top;spacingLeft=4;spacingRight=4;overflow=hidden;rotatable=0;points=[[0,0.5],[1,0.5]];portConstraint=eastwest;fontSize=17;" vertex="1" parent="1T6ESOc0t_kYryriSd0D-7">
          <mxGeometry y="132.5" width="450" height="25" as="geometry" />
        </mxCell>
        <mxCell id="1T6ESOc0t_kYryriSd0D-14" value="+mergeJSON(JSONObject, JSONObject) : JSONObject" style="text;strokeColor=none;fillColor=none;align=left;verticalAlign=top;spacingLeft=4;spacingRight=4;overflow=hidden;rotatable=0;points=[[0,0.5],[1,0.5]];portConstraint=eastwest;fontSize=17;" vertex="1" parent="1T6ESOc0t_kYryriSd0D-7">
          <mxGeometry y="157.5" width="450" height="25" as="geometry" />
        </mxCell>
        <mxCell id="1T6ESOc0t_kYryriSd0D-15" value="+getFilterSqlByTableSql(String) : String" style="text;strokeColor=none;fillColor=none;align=left;verticalAlign=top;spacingLeft=4;spacingRight=4;overflow=hidden;rotatable=0;points=[[0,0.5],[1,0.5]];portConstraint=eastwest;fontSize=17;" vertex="1" parent="1T6ESOc0t_kYryriSd0D-7">
          <mxGeometry y="182.5" width="450" height="25" as="geometry" />
        </mxCell>
        <mxCell id="1T6ESOc0t_kYryriSd0D-16" value="+getDataSourceConnect(String) : Connection?" style="text;strokeColor=none;fillColor=none;align=left;verticalAlign=top;spacingLeft=4;spacingRight=4;overflow=hidden;rotatable=0;points=[[0,0.5],[1,0.5]];portConstraint=eastwest;fontSize=17;" vertex="1" parent="1T6ESOc0t_kYryriSd0D-7">
          <mxGeometry y="207.5" width="450" height="25" as="geometry" />
        </mxCell>
        <mxCell id="1T6ESOc0t_kYryriSd0D-17" value="-getDatabaseTypeByDataSource(DataSource) : String" style="text;strokeColor=none;fillColor=none;align=left;verticalAlign=top;spacingLeft=4;spacingRight=4;overflow=hidden;rotatable=0;points=[[0,0.5],[1,0.5]];portConstraint=eastwest;fontSize=17;" vertex="1" parent="1T6ESOc0t_kYryriSd0D-7">
          <mxGeometry y="232.5" width="450" height="25" as="geometry" />
        </mxCell>
        <mxCell id="1T6ESOc0t_kYryriSd0D-18" value="+upload(MultipartFile, String, String, String) : String" style="text;strokeColor=none;fillColor=none;align=left;verticalAlign=top;spacingLeft=4;spacingRight=4;overflow=hidden;rotatable=0;points=[[0,0.5],[1,0.5]];portConstraint=eastwest;fontSize=17;" vertex="1" parent="1T6ESOc0t_kYryriSd0D-7">
          <mxGeometry y="257.5" width="450" height="25" as="geometry" />
        </mxCell>
        <mxCell id="1T6ESOc0t_kYryriSd0D-19" value="+uploadLocal(MultipartFile, String, String) : String" style="text;strokeColor=none;fillColor=none;align=left;verticalAlign=top;spacingLeft=4;spacingRight=4;overflow=hidden;rotatable=0;points=[[0,0.5],[1,0.5]];portConstraint=eastwest;fontSize=17;" vertex="1" parent="1T6ESOc0t_kYryriSd0D-7">
          <mxGeometry y="282.5" width="450" height="25" as="geometry" />
        </mxCell>
        <mxCell id="1T6ESOc0t_kYryriSd0D-20" value="+getFileName(String) : String" style="text;strokeColor=none;fillColor=none;align=left;verticalAlign=top;spacingLeft=4;spacingRight=4;overflow=hidden;rotatable=0;points=[[0,0.5],[1,0.5]];portConstraint=eastwest;fontSize=17;" vertex="1" parent="1T6ESOc0t_kYryriSd0D-7">
          <mxGeometry y="307.5" width="450" height="25" as="geometry" />
        </mxCell>
        <mxCell id="1T6ESOc0t_kYryriSd0D-21" value="+mergeJSON(JSONObject, JSONObject[]) : JSONObject" style="text;strokeColor=none;fillColor=none;align=left;verticalAlign=top;spacingLeft=4;spacingRight=4;overflow=hidden;rotatable=0;points=[[0,0.5],[1,0.5]];portConstraint=eastwest;fontSize=17;" vertex="1" parent="1T6ESOc0t_kYryriSd0D-7">
          <mxGeometry y="332.5" width="450" height="25" as="geometry" />
        </mxCell>
        <mxCell id="1T6ESOc0t_kYryriSd0D-22" value="+getTableNameByTableSql(String) : String" style="text;strokeColor=none;fillColor=none;align=left;verticalAlign=top;spacingLeft=4;spacingRight=4;overflow=hidden;rotatable=0;points=[[0,0.5],[1,0.5]];portConstraint=eastwest;fontSize=17;" vertex="1" parent="1T6ESOc0t_kYryriSd0D-7">
          <mxGeometry y="357.5" width="450" height="25" as="geometry" />
        </mxCell>
        <mxCell id="1T6ESOc0t_kYryriSd0D-23" value="+ifContainChinese(String) : boolean" style="text;strokeColor=none;fillColor=none;align=left;verticalAlign=top;spacingLeft=4;spacingRight=4;overflow=hidden;rotatable=0;points=[[0,0.5],[1,0.5]];portConstraint=eastwest;fontSize=17;" vertex="1" parent="1T6ESOc0t_kYryriSd0D-7">
          <mxGeometry y="382.5" width="450" height="25" as="geometry" />
        </mxCell>
        <mxCell id="1T6ESOc0t_kYryriSd0D-24" value="+upload(MultipartFile, String, String) : String" style="text;strokeColor=none;fillColor=none;align=left;verticalAlign=top;spacingLeft=4;spacingRight=4;overflow=hidden;rotatable=0;points=[[0,0.5],[1,0.5]];portConstraint=eastwest;fontSize=17;" vertex="1" parent="1T6ESOc0t_kYryriSd0D-7">
          <mxGeometry y="407.5" width="450" height="25" as="geometry" />
        </mxCell>
        <mxCell id="1T6ESOc0t_kYryriSd0D-25" value="+getDataSourceProperty(String) : DataSourceProperty" style="text;strokeColor=none;fillColor=none;align=left;verticalAlign=top;spacingLeft=4;spacingRight=4;overflow=hidden;rotatable=0;points=[[0,0.5],[1,0.5]];portConstraint=eastwest;fontSize=17;" vertex="1" parent="1T6ESOc0t_kYryriSd0D-7">
          <mxGeometry y="432.5" width="450" height="25" as="geometry" />
        </mxCell>
        <mxCell id="1T6ESOc0t_kYryriSd0D-26" value="MinioUtil" style="swimlane;fontStyle=1;align=center;verticalAlign=top;childLayout=stackLayout;horizontal=1;startSize=25.25;horizontalStack=0;resizeParent=1;resizeParentMax=0;resizeLast=0;collapsible=0;marginBottom=0;fontSize=17;" vertex="1" parent="1">
          <mxGeometry x="121.5" y="748" width="367" height="308.25" as="geometry" />
        </mxCell>
        <mxCell id="1T6ESOc0t_kYryriSd0D-27" value="- String bucketName" style="text;strokeColor=none;fillColor=none;align=left;verticalAlign=top;spacingLeft=4;spacingRight=4;overflow=hidden;rotatable=0;points=[[0,0.5],[1,0.5]];portConstraint=eastwest;fontSize=17;" vertex="1" parent="1T6ESOc0t_kYryriSd0D-26">
          <mxGeometry y="25.25" width="367" height="25" as="geometry" />
        </mxCell>
        <mxCell id="1T6ESOc0t_kYryriSd0D-28" value="- String minioPass" style="text;strokeColor=none;fillColor=none;align=left;verticalAlign=top;spacingLeft=4;spacingRight=4;overflow=hidden;rotatable=0;points=[[0,0.5],[1,0.5]];portConstraint=eastwest;fontSize=17;" vertex="1" parent="1T6ESOc0t_kYryriSd0D-26">
          <mxGeometry y="50.25" width="367" height="25" as="geometry" />
        </mxCell>
        <mxCell id="1T6ESOc0t_kYryriSd0D-29" value="- String minioUrl" style="text;strokeColor=none;fillColor=none;align=left;verticalAlign=top;spacingLeft=4;spacingRight=4;overflow=hidden;rotatable=0;points=[[0,0.5],[1,0.5]];portConstraint=eastwest;fontSize=17;" vertex="1" parent="1T6ESOc0t_kYryriSd0D-26">
          <mxGeometry y="75.25" width="367" height="25" as="geometry" />
        </mxCell>
        <mxCell id="1T6ESOc0t_kYryriSd0D-30" value="- String minioName" style="text;strokeColor=none;fillColor=none;align=left;verticalAlign=top;spacingLeft=4;spacingRight=4;overflow=hidden;rotatable=0;points=[[0,0.5],[1,0.5]];portConstraint=eastwest;fontSize=17;" vertex="1" parent="1T6ESOc0t_kYryriSd0D-26">
          <mxGeometry y="100.25" width="367" height="25" as="geometry" />
        </mxCell>
        <mxCell id="1T6ESOc0t_kYryriSd0D-31" style="line;strokeWidth=1;fillColor=none;align=left;verticalAlign=middle;spacingTop=-1;spacingLeft=3;spacingRight=3;rotatable=0;labelPosition=right;points=[];portConstraint=eastwest;strokeColor=inherit;fontSize=17;" vertex="1" parent="1T6ESOc0t_kYryriSd0D-26">
          <mxGeometry y="125.25" width="367" height="8" as="geometry" />
        </mxCell>
        <mxCell id="1T6ESOc0t_kYryriSd0D-32" value="+upload(MultipartFile, String, String) : String" style="text;strokeColor=none;fillColor=none;align=left;verticalAlign=top;spacingLeft=4;spacingRight=4;overflow=hidden;rotatable=0;points=[[0,0.5],[1,0.5]];portConstraint=eastwest;fontSize=17;" vertex="1" parent="1T6ESOc0t_kYryriSd0D-26">
          <mxGeometry y="133.25" width="367" height="25" as="geometry" />
        </mxCell>
        <mxCell id="1T6ESOc0t_kYryriSd0D-33" value="+getObjectUrl(String, String, Integer) : String?" style="text;strokeColor=none;fillColor=none;align=left;verticalAlign=top;spacingLeft=4;spacingRight=4;overflow=hidden;rotatable=0;points=[[0,0.5],[1,0.5]];portConstraint=eastwest;fontSize=17;" vertex="1" parent="1T6ESOc0t_kYryriSd0D-26">
          <mxGeometry y="158.25" width="367" height="25" as="geometry" />
        </mxCell>
        <mxCell id="1T6ESOc0t_kYryriSd0D-34" value="+upload(MultipartFile, String) : String" style="text;strokeColor=none;fillColor=none;align=left;verticalAlign=top;spacingLeft=4;spacingRight=4;overflow=hidden;rotatable=0;points=[[0,0.5],[1,0.5]];portConstraint=eastwest;fontSize=17;" vertex="1" parent="1T6ESOc0t_kYryriSd0D-26">
          <mxGeometry y="183.25" width="367" height="25" as="geometry" />
        </mxCell>
        <mxCell id="1T6ESOc0t_kYryriSd0D-35" value="+removeObject(String, String) : void" style="text;strokeColor=none;fillColor=none;align=left;verticalAlign=top;spacingLeft=4;spacingRight=4;overflow=hidden;rotatable=0;points=[[0,0.5],[1,0.5]];portConstraint=eastwest;fontSize=17;" vertex="1" parent="1T6ESOc0t_kYryriSd0D-26">
          <mxGeometry y="208.25" width="367" height="25" as="geometry" />
        </mxCell>
        <mxCell id="1T6ESOc0t_kYryriSd0D-36" value="-initMinio(String, String, String) : MinioClient" style="text;strokeColor=none;fillColor=none;align=left;verticalAlign=top;spacingLeft=4;spacingRight=4;overflow=hidden;rotatable=0;points=[[0,0.5],[1,0.5]];portConstraint=eastwest;fontSize=17;" vertex="1" parent="1T6ESOc0t_kYryriSd0D-26">
          <mxGeometry y="233.25" width="367" height="25" as="geometry" />
        </mxCell>
        <mxCell id="1T6ESOc0t_kYryriSd0D-37" value="+upload(InputStream, String) : String" style="text;strokeColor=none;fillColor=none;align=left;verticalAlign=top;spacingLeft=4;spacingRight=4;overflow=hidden;rotatable=0;points=[[0,0.5],[1,0.5]];portConstraint=eastwest;fontSize=17;" vertex="1" parent="1T6ESOc0t_kYryriSd0D-26">
          <mxGeometry y="258.25" width="367" height="25" as="geometry" />
        </mxCell>
        <mxCell id="1T6ESOc0t_kYryriSd0D-38" value="+getMinioFile(String, String) : InputStream" style="text;strokeColor=none;fillColor=none;align=left;verticalAlign=top;spacingLeft=4;spacingRight=4;overflow=hidden;rotatable=0;points=[[0,0.5],[1,0.5]];portConstraint=eastwest;fontSize=17;" vertex="1" parent="1T6ESOc0t_kYryriSd0D-26">
          <mxGeometry y="283.25" width="367" height="25" as="geometry" />
        </mxCell>
        <mxCell id="1T6ESOc0t_kYryriSd0D-39" value="ActiveService" style="swimlane;fontStyle=1;align=center;verticalAlign=top;childLayout=stackLayout;horizontal=1;startSize=24.63157894736842;horizontalStack=0;resizeParent=1;resizeParentMax=0;resizeLast=0;collapsible=0;marginBottom=0;fontSize=17;" vertex="1" parent="1">
          <mxGeometry x="620" y="210" width="278" height="232.63157894736844" as="geometry" />
        </mxCell>
        <mxCell id="1T6ESOc0t_kYryriSd0D-40" style="line;strokeWidth=1;fillColor=none;align=left;verticalAlign=middle;spacingTop=-1;spacingLeft=3;spacingRight=3;rotatable=0;labelPosition=right;points=[];portConstraint=eastwest;strokeColor=inherit;fontSize=17;" vertex="1" parent="1T6ESOc0t_kYryriSd0D-39">
          <mxGeometry y="24.63157894736842" width="278" height="8" as="geometry" />
        </mxCell>
        <mxCell id="1T6ESOc0t_kYryriSd0D-41" value="+getById(Serializable) : T" style="text;strokeColor=none;fillColor=none;align=left;verticalAlign=top;spacingLeft=4;spacingRight=4;overflow=hidden;rotatable=0;points=[[0,0.5],[1,0.5]];portConstraint=eastwest;fontSize=17;" vertex="1" parent="1T6ESOc0t_kYryriSd0D-39">
          <mxGeometry y="32.631578947368425" width="278" height="25" as="geometry" />
        </mxCell>
        <mxCell id="1T6ESOc0t_kYryriSd0D-42" value="+update(Wrapper&lt;T&gt;) : boolean" style="text;strokeColor=none;fillColor=none;align=left;verticalAlign=top;spacingLeft=4;spacingRight=4;overflow=hidden;rotatable=0;points=[[0,0.5],[1,0.5]];portConstraint=eastwest;fontSize=17;" vertex="1" parent="1T6ESOc0t_kYryriSd0D-39">
          <mxGeometry y="57.631578947368425" width="278" height="25" as="geometry" />
        </mxCell>
        <mxCell id="1T6ESOc0t_kYryriSd0D-43" value="+getOne(Wrapper&lt;T&gt;, boolean) : T" style="text;strokeColor=none;fillColor=none;align=left;verticalAlign=top;spacingLeft=4;spacingRight=4;overflow=hidden;rotatable=0;points=[[0,0.5],[1,0.5]];portConstraint=eastwest;fontSize=17;" vertex="1" parent="1T6ESOc0t_kYryriSd0D-39">
          <mxGeometry y="82.63157894736842" width="278" height="25" as="geometry" />
        </mxCell>
        <mxCell id="1T6ESOc0t_kYryriSd0D-44" value="+removeById(T) : boolean" style="text;strokeColor=none;fillColor=none;align=left;verticalAlign=top;spacingLeft=4;spacingRight=4;overflow=hidden;rotatable=0;points=[[0,0.5],[1,0.5]];portConstraint=eastwest;fontSize=17;" vertex="1" parent="1T6ESOc0t_kYryriSd0D-39">
          <mxGeometry y="107.63157894736842" width="278" height="25" as="geometry" />
        </mxCell>
        <mxCell id="1T6ESOc0t_kYryriSd0D-45" value="+updateById(T) : boolean" style="text;strokeColor=none;fillColor=none;align=left;verticalAlign=top;spacingLeft=4;spacingRight=4;overflow=hidden;rotatable=0;points=[[0,0.5],[1,0.5]];portConstraint=eastwest;fontSize=17;" vertex="1" parent="1T6ESOc0t_kYryriSd0D-39">
          <mxGeometry y="132.63157894736844" width="278" height="25" as="geometry" />
        </mxCell>
        <mxCell id="1T6ESOc0t_kYryriSd0D-46" value="+save(T) : boolean" style="text;strokeColor=none;fillColor=none;align=left;verticalAlign=top;spacingLeft=4;spacingRight=4;overflow=hidden;rotatable=0;points=[[0,0.5],[1,0.5]];portConstraint=eastwest;fontSize=17;" vertex="1" parent="1T6ESOc0t_kYryriSd0D-39">
          <mxGeometry y="157.63157894736844" width="278" height="25" as="geometry" />
        </mxCell>
        <mxCell id="1T6ESOc0t_kYryriSd0D-47" value="+query() : QueryChainWrapper&lt;T&gt;" style="text;strokeColor=none;fillColor=none;align=left;verticalAlign=top;spacingLeft=4;spacingRight=4;overflow=hidden;rotatable=0;points=[[0,0.5],[1,0.5]];portConstraint=eastwest;fontSize=17;" vertex="1" parent="1T6ESOc0t_kYryriSd0D-39">
          <mxGeometry y="182.63157894736844" width="278" height="25" as="geometry" />
        </mxCell>
        <mxCell id="1T6ESOc0t_kYryriSd0D-48" value="+update(T, Wrapper&lt;T&gt;) : boolean" style="text;strokeColor=none;fillColor=none;align=left;verticalAlign=top;spacingLeft=4;spacingRight=4;overflow=hidden;rotatable=0;points=[[0,0.5],[1,0.5]];portConstraint=eastwest;fontSize=17;" vertex="1" parent="1T6ESOc0t_kYryriSd0D-39">
          <mxGeometry y="207.63157894736844" width="278" height="25" as="geometry" />
        </mxCell>
        <mxCell id="1T6ESOc0t_kYryriSd0D-49" value="InstitutionService" style="swimlane;fontStyle=1;align=center;verticalAlign=top;childLayout=stackLayout;horizontal=1;startSize=24.63157894736842;horizontalStack=0;resizeParent=1;resizeParentMax=0;resizeLast=0;collapsible=0;marginBottom=0;fontSize=17;" vertex="1" parent="1">
          <mxGeometry x="1060" y="200" width="280" height="232.63157894736844" as="geometry" />
        </mxCell>
        <mxCell id="1T6ESOc0t_kYryriSd0D-50" style="line;strokeWidth=1;fillColor=none;align=left;verticalAlign=middle;spacingTop=-1;spacingLeft=3;spacingRight=3;rotatable=0;labelPosition=right;points=[];portConstraint=eastwest;strokeColor=inherit;fontSize=17;" vertex="1" parent="1T6ESOc0t_kYryriSd0D-49">
          <mxGeometry y="24.63157894736842" width="280" height="8" as="geometry" />
        </mxCell>
        <mxCell id="1T6ESOc0t_kYryriSd0D-51" value="+getById(Serializable) : T" style="text;strokeColor=none;fillColor=none;align=left;verticalAlign=top;spacingLeft=4;spacingRight=4;overflow=hidden;rotatable=0;points=[[0,0.5],[1,0.5]];portConstraint=eastwest;fontSize=17;" vertex="1" parent="1T6ESOc0t_kYryriSd0D-49">
          <mxGeometry y="32.631578947368425" width="280" height="25" as="geometry" />
        </mxCell>
        <mxCell id="1T6ESOc0t_kYryriSd0D-52" value="+update(Wrapper&lt;T&gt;) : boolean" style="text;strokeColor=none;fillColor=none;align=left;verticalAlign=top;spacingLeft=4;spacingRight=4;overflow=hidden;rotatable=0;points=[[0,0.5],[1,0.5]];portConstraint=eastwest;fontSize=17;" vertex="1" parent="1T6ESOc0t_kYryriSd0D-49">
          <mxGeometry y="57.631578947368425" width="280" height="25" as="geometry" />
        </mxCell>
        <mxCell id="1T6ESOc0t_kYryriSd0D-53" value="+getOne(Wrapper&lt;T&gt;, boolean) : T" style="text;strokeColor=none;fillColor=none;align=left;verticalAlign=top;spacingLeft=4;spacingRight=4;overflow=hidden;rotatable=0;points=[[0,0.5],[1,0.5]];portConstraint=eastwest;fontSize=17;" vertex="1" parent="1T6ESOc0t_kYryriSd0D-49">
          <mxGeometry y="82.63157894736842" width="280" height="25" as="geometry" />
        </mxCell>
        <mxCell id="1T6ESOc0t_kYryriSd0D-54" value="+removeById(T) : boolean" style="text;strokeColor=none;fillColor=none;align=left;verticalAlign=top;spacingLeft=4;spacingRight=4;overflow=hidden;rotatable=0;points=[[0,0.5],[1,0.5]];portConstraint=eastwest;fontSize=17;" vertex="1" parent="1T6ESOc0t_kYryriSd0D-49">
          <mxGeometry y="107.63157894736842" width="280" height="25" as="geometry" />
        </mxCell>
        <mxCell id="1T6ESOc0t_kYryriSd0D-55" value="+updateById(T) : boolean" style="text;strokeColor=none;fillColor=none;align=left;verticalAlign=top;spacingLeft=4;spacingRight=4;overflow=hidden;rotatable=0;points=[[0,0.5],[1,0.5]];portConstraint=eastwest;fontSize=17;" vertex="1" parent="1T6ESOc0t_kYryriSd0D-49">
          <mxGeometry y="132.63157894736844" width="280" height="25" as="geometry" />
        </mxCell>
        <mxCell id="1T6ESOc0t_kYryriSd0D-56" value="+save(T) : boolean" style="text;strokeColor=none;fillColor=none;align=left;verticalAlign=top;spacingLeft=4;spacingRight=4;overflow=hidden;rotatable=0;points=[[0,0.5],[1,0.5]];portConstraint=eastwest;fontSize=17;" vertex="1" parent="1T6ESOc0t_kYryriSd0D-49">
          <mxGeometry y="157.63157894736844" width="280" height="25" as="geometry" />
        </mxCell>
        <mxCell id="1T6ESOc0t_kYryriSd0D-57" value="+query() : QueryChainWrapper&lt;T&gt;" style="text;strokeColor=none;fillColor=none;align=left;verticalAlign=top;spacingLeft=4;spacingRight=4;overflow=hidden;rotatable=0;points=[[0,0.5],[1,0.5]];portConstraint=eastwest;fontSize=17;" vertex="1" parent="1T6ESOc0t_kYryriSd0D-49">
          <mxGeometry y="182.63157894736844" width="280" height="25" as="geometry" />
        </mxCell>
        <mxCell id="1T6ESOc0t_kYryriSd0D-58" value="+update(T, Wrapper&lt;T&gt;) : boolean" style="text;strokeColor=none;fillColor=none;align=left;verticalAlign=top;spacingLeft=4;spacingRight=4;overflow=hidden;rotatable=0;points=[[0,0.5],[1,0.5]];portConstraint=eastwest;fontSize=17;" vertex="1" parent="1T6ESOc0t_kYryriSd0D-49">
          <mxGeometry y="207.63157894736844" width="280" height="25" as="geometry" />
        </mxCell>
        <mxCell id="1T6ESOc0t_kYryriSd0D-59" value="CommonController" style="swimlane;fontStyle=1;align=center;verticalAlign=top;childLayout=stackLayout;horizontal=1;startSize=27.428571428571427;horizontalStack=0;resizeParent=1;resizeParentMax=0;resizeLast=0;collapsible=0;marginBottom=0;fontSize=17;" vertex="1" parent="1">
          <mxGeometry x="540" y="10" width="649" height="89.42857142857143" as="geometry" />
        </mxCell>
        <mxCell id="1T6ESOc0t_kYryriSd0D-60" style="line;strokeWidth=1;fillColor=none;align=left;verticalAlign=middle;spacingTop=-1;spacingLeft=3;spacingRight=3;rotatable=0;labelPosition=right;points=[];portConstraint=eastwest;strokeColor=inherit;fontSize=17;" vertex="1" parent="1T6ESOc0t_kYryriSd0D-59">
          <mxGeometry y="27.428571428571427" width="649" height="8" as="geometry" />
        </mxCell>
        <mxCell id="1T6ESOc0t_kYryriSd0D-61" value="+search(String, Integer, Integer, HttpServletRequest) : Result&lt;IPage&lt;JSONObject&gt;&gt;" style="text;strokeColor=none;fillColor=none;align=left;verticalAlign=top;spacingLeft=4;spacingRight=4;overflow=hidden;rotatable=0;points=[[0,0.5],[1,0.5]];portConstraint=eastwest;fontSize=17;" vertex="1" parent="1T6ESOc0t_kYryriSd0D-59">
          <mxGeometry y="35.42857142857143" width="649" height="27" as="geometry" />
        </mxCell>
        <mxCell id="1T6ESOc0t_kYryriSd0D-62" value="+upload(HttpServletRequest, HttpServletResponse) : Result&lt;?&gt;" style="text;strokeColor=none;fillColor=none;align=left;verticalAlign=top;spacingLeft=4;spacingRight=4;overflow=hidden;rotatable=0;points=[[0,0.5],[1,0.5]];portConstraint=eastwest;fontSize=17;" vertex="1" parent="1T6ESOc0t_kYryriSd0D-59">
          <mxGeometry y="62.42857142857143" width="649" height="27" as="geometry" />
        </mxCell>
        <mxCell id="1T6ESOc0t_kYryriSd0D-63" value="InstitutionServiceImpl" style="swimlane;fontStyle=1;align=center;verticalAlign=top;childLayout=stackLayout;horizontal=1;startSize=25.818181818181817;horizontalStack=0;resizeParent=1;resizeParentMax=0;resizeLast=0;collapsible=0;marginBottom=0;fontSize=17;" vertex="1" parent="1">
          <mxGeometry x="1106" y="530" width="188" height="142.8181818181818" as="geometry" />
        </mxCell>
        <mxCell id="1T6ESOc0t_kYryriSd0D-64" value="# M baseMapper" style="text;strokeColor=none;fillColor=none;align=left;verticalAlign=top;spacingLeft=4;spacingRight=4;overflow=hidden;rotatable=0;points=[[0,0.5],[1,0.5]];portConstraint=eastwest;fontSize=17;" vertex="1" parent="1T6ESOc0t_kYryriSd0D-63">
          <mxGeometry y="25.818181818181817" width="188" height="26" as="geometry" />
        </mxCell>
        <mxCell id="1T6ESOc0t_kYryriSd0D-65" value="# Class&lt;T&gt; entityClass" style="text;strokeColor=none;fillColor=none;align=left;verticalAlign=top;spacingLeft=4;spacingRight=4;overflow=hidden;rotatable=0;points=[[0,0.5],[1,0.5]];portConstraint=eastwest;fontSize=17;" vertex="1" parent="1T6ESOc0t_kYryriSd0D-63">
          <mxGeometry y="51.81818181818181" width="188" height="26" as="geometry" />
        </mxCell>
        <mxCell id="1T6ESOc0t_kYryriSd0D-66" value="Class&lt;T&gt; entityClass" style="text;strokeColor=none;fillColor=none;align=left;verticalAlign=top;spacingLeft=4;spacingRight=4;overflow=hidden;rotatable=0;points=[[0,0.5],[1,0.5]];portConstraint=eastwest;fontSize=17;" vertex="1" parent="1T6ESOc0t_kYryriSd0D-63">
          <mxGeometry y="77.81818181818181" width="188" height="26" as="geometry" />
        </mxCell>
        <mxCell id="1T6ESOc0t_kYryriSd0D-67" value="M baseMapper" style="text;strokeColor=none;fillColor=none;align=left;verticalAlign=top;spacingLeft=4;spacingRight=4;overflow=hidden;rotatable=0;points=[[0,0.5],[1,0.5]];portConstraint=eastwest;fontSize=17;" vertex="1" parent="1T6ESOc0t_kYryriSd0D-63">
          <mxGeometry y="103.81818181818181" width="188" height="26" as="geometry" />
        </mxCell>
        <mxCell id="1T6ESOc0t_kYryriSd0D-68" style="line;strokeWidth=1;fillColor=none;align=left;verticalAlign=middle;spacingTop=-1;spacingLeft=3;spacingRight=3;rotatable=0;labelPosition=right;points=[];portConstraint=eastwest;strokeColor=inherit;fontSize=17;" vertex="1" parent="1T6ESOc0t_kYryriSd0D-63">
          <mxGeometry y="129.8181818181818" width="188" height="13" as="geometry" />
        </mxCell>
        <mxCell id="1T6ESOc0t_kYryriSd0D-69" value="ActiveServiceImpl" style="swimlane;fontStyle=1;align=center;verticalAlign=top;childLayout=stackLayout;horizontal=1;startSize=25.818181818181817;horizontalStack=0;resizeParent=1;resizeParentMax=0;resizeLast=0;collapsible=0;marginBottom=0;fontSize=17;" vertex="1" parent="1">
          <mxGeometry x="672" y="530" width="174" height="142.8181818181818" as="geometry" />
        </mxCell>
        <mxCell id="1T6ESOc0t_kYryriSd0D-70" value="# M baseMapper" style="text;strokeColor=none;fillColor=none;align=left;verticalAlign=top;spacingLeft=4;spacingRight=4;overflow=hidden;rotatable=0;points=[[0,0.5],[1,0.5]];portConstraint=eastwest;fontSize=17;" vertex="1" parent="1T6ESOc0t_kYryriSd0D-69">
          <mxGeometry y="25.818181818181817" width="174" height="26" as="geometry" />
        </mxCell>
        <mxCell id="1T6ESOc0t_kYryriSd0D-71" value="# Class&lt;T&gt; entityClass" style="text;strokeColor=none;fillColor=none;align=left;verticalAlign=top;spacingLeft=4;spacingRight=4;overflow=hidden;rotatable=0;points=[[0,0.5],[1,0.5]];portConstraint=eastwest;fontSize=17;" vertex="1" parent="1T6ESOc0t_kYryriSd0D-69">
          <mxGeometry y="51.81818181818181" width="174" height="26" as="geometry" />
        </mxCell>
        <mxCell id="1T6ESOc0t_kYryriSd0D-72" value="Class&lt;T&gt; entityClass" style="text;strokeColor=none;fillColor=none;align=left;verticalAlign=top;spacingLeft=4;spacingRight=4;overflow=hidden;rotatable=0;points=[[0,0.5],[1,0.5]];portConstraint=eastwest;fontSize=17;" vertex="1" parent="1T6ESOc0t_kYryriSd0D-69">
          <mxGeometry y="77.81818181818181" width="174" height="26" as="geometry" />
        </mxCell>
        <mxCell id="1T6ESOc0t_kYryriSd0D-73" value="M baseMapper" style="text;strokeColor=none;fillColor=none;align=left;verticalAlign=top;spacingLeft=4;spacingRight=4;overflow=hidden;rotatable=0;points=[[0,0.5],[1,0.5]];portConstraint=eastwest;fontSize=17;" vertex="1" parent="1T6ESOc0t_kYryriSd0D-69">
          <mxGeometry y="103.81818181818181" width="174" height="26" as="geometry" />
        </mxCell>
        <mxCell id="1T6ESOc0t_kYryriSd0D-74" style="line;strokeWidth=1;fillColor=none;align=left;verticalAlign=middle;spacingTop=-1;spacingLeft=3;spacingRight=3;rotatable=0;labelPosition=right;points=[];portConstraint=eastwest;strokeColor=inherit;fontSize=17;" vertex="1" parent="1T6ESOc0t_kYryriSd0D-69">
          <mxGeometry y="129.8181818181818" width="174" height="13" as="geometry" />
        </mxCell>
        <mxCell id="1T6ESOc0t_kYryriSd0D-75" value="ActiveMapper" style="swimlane;fontStyle=1;align=center;verticalAlign=top;childLayout=stackLayout;horizontal=1;startSize=24.24;horizontalStack=0;resizeParent=1;resizeParentMax=0;resizeLast=0;collapsible=0;marginBottom=0;fontSize=17;" vertex="1" parent="1">
          <mxGeometry x="562" y="754" width="394" height="296.24" as="geometry" />
        </mxCell>
        <mxCell id="1T6ESOc0t_kYryriSd0D-76" style="line;strokeWidth=1;fillColor=none;align=left;verticalAlign=middle;spacingTop=-1;spacingLeft=3;spacingRight=3;rotatable=0;labelPosition=right;points=[];portConstraint=eastwest;strokeColor=inherit;fontSize=17;" vertex="1" parent="1T6ESOc0t_kYryriSd0D-75">
          <mxGeometry y="24.24" width="394" height="8" as="geometry" />
        </mxCell>
        <mxCell id="1T6ESOc0t_kYryriSd0D-77" value="+delete(Wrapper&lt;T&gt;) : int" style="text;strokeColor=none;fillColor=none;align=left;verticalAlign=top;spacingLeft=4;spacingRight=4;overflow=hidden;rotatable=0;points=[[0,0.5],[1,0.5]];portConstraint=eastwest;fontSize=17;" vertex="1" parent="1T6ESOc0t_kYryriSd0D-75">
          <mxGeometry y="32.239999999999995" width="394" height="24" as="geometry" />
        </mxCell>
        <mxCell id="1T6ESOc0t_kYryriSd0D-78" value="+selectBatchIds(Collection&lt;Serializable&lt;) : List&gt;T&gt;" style="text;strokeColor=none;fillColor=none;align=left;verticalAlign=top;spacingLeft=4;spacingRight=4;overflow=hidden;rotatable=0;points=[[0,0.5],[1,0.5]];portConstraint=eastwest;fontSize=17;" vertex="1" parent="1T6ESOc0t_kYryriSd0D-75">
          <mxGeometry y="56.239999999999995" width="394" height="24" as="geometry" />
        </mxCell>
        <mxCell id="1T6ESOc0t_kYryriSd0D-79" value="+deleteBatchIds(Collection&lt;?&gt;) : int" style="text;strokeColor=none;fillColor=none;align=left;verticalAlign=top;spacingLeft=4;spacingRight=4;overflow=hidden;rotatable=0;points=[[0,0.5],[1,0.5]];portConstraint=eastwest;fontSize=17;" vertex="1" parent="1T6ESOc0t_kYryriSd0D-75">
          <mxGeometry y="80.24" width="394" height="24" as="geometry" />
        </mxCell>
        <mxCell id="1T6ESOc0t_kYryriSd0D-80" value="+selectById(Serializable) : T" style="text;strokeColor=none;fillColor=none;align=left;verticalAlign=top;spacingLeft=4;spacingRight=4;overflow=hidden;rotatable=0;points=[[0,0.5],[1,0.5]];portConstraint=eastwest;fontSize=17;" vertex="1" parent="1T6ESOc0t_kYryriSd0D-75">
          <mxGeometry y="104.24" width="394" height="24" as="geometry" />
        </mxCell>
        <mxCell id="1T6ESOc0t_kYryriSd0D-81" value="+insert(T) : int" style="text;strokeColor=none;fillColor=none;align=left;verticalAlign=top;spacingLeft=4;spacingRight=4;overflow=hidden;rotatable=0;points=[[0,0.5],[1,0.5]];portConstraint=eastwest;fontSize=17;" vertex="1" parent="1T6ESOc0t_kYryriSd0D-75">
          <mxGeometry y="128.24" width="394" height="24" as="geometry" />
        </mxCell>
        <mxCell id="1T6ESOc0t_kYryriSd0D-82" value="+selectOne(Wrapper&lt;T&gt;) : T" style="text;strokeColor=none;fillColor=none;align=left;verticalAlign=top;spacingLeft=4;spacingRight=4;overflow=hidden;rotatable=0;points=[[0,0.5],[1,0.5]];portConstraint=eastwest;fontSize=17;" vertex="1" parent="1T6ESOc0t_kYryriSd0D-75">
          <mxGeometry y="152.24" width="394" height="24" as="geometry" />
        </mxCell>
        <mxCell id="1T6ESOc0t_kYryriSd0D-83" value="+deleteById(T) : int" style="text;strokeColor=none;fillColor=none;align=left;verticalAlign=top;spacingLeft=4;spacingRight=4;overflow=hidden;rotatable=0;points=[[0,0.5],[1,0.5]];portConstraint=eastwest;fontSize=17;" vertex="1" parent="1T6ESOc0t_kYryriSd0D-75">
          <mxGeometry y="176.24" width="394" height="24" as="geometry" />
        </mxCell>
        <mxCell id="1T6ESOc0t_kYryriSd0D-84" value="+selectList(Wrapper&lt;T&lt;) : List&gt;T&gt;" style="text;strokeColor=none;fillColor=none;align=left;verticalAlign=top;spacingLeft=4;spacingRight=4;overflow=hidden;rotatable=0;points=[[0,0.5],[1,0.5]];portConstraint=eastwest;fontSize=17;" vertex="1" parent="1T6ESOc0t_kYryriSd0D-75">
          <mxGeometry y="200.24" width="394" height="24" as="geometry" />
        </mxCell>
        <mxCell id="1T6ESOc0t_kYryriSd0D-85" value="+deleteById(Serializable) : int" style="text;strokeColor=none;fillColor=none;align=left;verticalAlign=top;spacingLeft=4;spacingRight=4;overflow=hidden;rotatable=0;points=[[0,0.5],[1,0.5]];portConstraint=eastwest;fontSize=17;" vertex="1" parent="1T6ESOc0t_kYryriSd0D-75">
          <mxGeometry y="224.24" width="394" height="24" as="geometry" />
        </mxCell>
        <mxCell id="1T6ESOc0t_kYryriSd0D-86" value="+updateById(T) : int" style="text;strokeColor=none;fillColor=none;align=left;verticalAlign=top;spacingLeft=4;spacingRight=4;overflow=hidden;rotatable=0;points=[[0,0.5],[1,0.5]];portConstraint=eastwest;fontSize=17;" vertex="1" parent="1T6ESOc0t_kYryriSd0D-75">
          <mxGeometry y="248.24" width="394" height="24" as="geometry" />
        </mxCell>
        <mxCell id="1T6ESOc0t_kYryriSd0D-87" value="+update(T, Wrapper&lt;T&gt;) : int" style="text;strokeColor=none;fillColor=none;align=left;verticalAlign=top;spacingLeft=4;spacingRight=4;overflow=hidden;rotatable=0;points=[[0,0.5],[1,0.5]];portConstraint=eastwest;fontSize=17;" vertex="1" parent="1T6ESOc0t_kYryriSd0D-75">
          <mxGeometry y="272.24" width="394" height="24" as="geometry" />
        </mxCell>
        <mxCell id="1T6ESOc0t_kYryriSd0D-88" value="InstitutionMapper" style="swimlane;fontStyle=1;align=center;verticalAlign=top;childLayout=stackLayout;horizontal=1;startSize=24.24;horizontalStack=0;resizeParent=1;resizeParentMax=0;resizeLast=0;collapsible=0;marginBottom=0;fontSize=17;" vertex="1" parent="1">
          <mxGeometry x="1001.5" y="754" width="397" height="296.24" as="geometry" />
        </mxCell>
        <mxCell id="1T6ESOc0t_kYryriSd0D-89" style="line;strokeWidth=1;fillColor=none;align=left;verticalAlign=middle;spacingTop=-1;spacingLeft=3;spacingRight=3;rotatable=0;labelPosition=right;points=[];portConstraint=eastwest;strokeColor=inherit;fontSize=17;" vertex="1" parent="1T6ESOc0t_kYryriSd0D-88">
          <mxGeometry y="24.24" width="397" height="8" as="geometry" />
        </mxCell>
        <mxCell id="1T6ESOc0t_kYryriSd0D-90" value="+delete(Wrapper&lt;T&gt;) : int" style="text;strokeColor=none;fillColor=none;align=left;verticalAlign=top;spacingLeft=4;spacingRight=4;overflow=hidden;rotatable=0;points=[[0,0.5],[1,0.5]];portConstraint=eastwest;fontSize=17;" vertex="1" parent="1T6ESOc0t_kYryriSd0D-88">
          <mxGeometry y="32.239999999999995" width="397" height="24" as="geometry" />
        </mxCell>
        <mxCell id="1T6ESOc0t_kYryriSd0D-91" value="+selectBatchIds(Collection&lt;Serializable&lt;) : List&gt;T&gt;" style="text;strokeColor=none;fillColor=none;align=left;verticalAlign=top;spacingLeft=4;spacingRight=4;overflow=hidden;rotatable=0;points=[[0,0.5],[1,0.5]];portConstraint=eastwest;fontSize=17;" vertex="1" parent="1T6ESOc0t_kYryriSd0D-88">
          <mxGeometry y="56.239999999999995" width="397" height="24" as="geometry" />
        </mxCell>
        <mxCell id="1T6ESOc0t_kYryriSd0D-92" value="+deleteBatchIds(Collection&lt;?&gt;) : int" style="text;strokeColor=none;fillColor=none;align=left;verticalAlign=top;spacingLeft=4;spacingRight=4;overflow=hidden;rotatable=0;points=[[0,0.5],[1,0.5]];portConstraint=eastwest;fontSize=17;" vertex="1" parent="1T6ESOc0t_kYryriSd0D-88">
          <mxGeometry y="80.24" width="397" height="24" as="geometry" />
        </mxCell>
        <mxCell id="1T6ESOc0t_kYryriSd0D-93" value="+selectById(Serializable) : T" style="text;strokeColor=none;fillColor=none;align=left;verticalAlign=top;spacingLeft=4;spacingRight=4;overflow=hidden;rotatable=0;points=[[0,0.5],[1,0.5]];portConstraint=eastwest;fontSize=17;" vertex="1" parent="1T6ESOc0t_kYryriSd0D-88">
          <mxGeometry y="104.24" width="397" height="24" as="geometry" />
        </mxCell>
        <mxCell id="1T6ESOc0t_kYryriSd0D-94" value="+insert(T) : int" style="text;strokeColor=none;fillColor=none;align=left;verticalAlign=top;spacingLeft=4;spacingRight=4;overflow=hidden;rotatable=0;points=[[0,0.5],[1,0.5]];portConstraint=eastwest;fontSize=17;" vertex="1" parent="1T6ESOc0t_kYryriSd0D-88">
          <mxGeometry y="128.24" width="397" height="24" as="geometry" />
        </mxCell>
        <mxCell id="1T6ESOc0t_kYryriSd0D-95" value="+selectOne(Wrapper&lt;T&gt;) : T" style="text;strokeColor=none;fillColor=none;align=left;verticalAlign=top;spacingLeft=4;spacingRight=4;overflow=hidden;rotatable=0;points=[[0,0.5],[1,0.5]];portConstraint=eastwest;fontSize=17;" vertex="1" parent="1T6ESOc0t_kYryriSd0D-88">
          <mxGeometry y="152.24" width="397" height="24" as="geometry" />
        </mxCell>
        <mxCell id="1T6ESOc0t_kYryriSd0D-96" value="+deleteById(T) : int" style="text;strokeColor=none;fillColor=none;align=left;verticalAlign=top;spacingLeft=4;spacingRight=4;overflow=hidden;rotatable=0;points=[[0,0.5],[1,0.5]];portConstraint=eastwest;fontSize=17;" vertex="1" parent="1T6ESOc0t_kYryriSd0D-88">
          <mxGeometry y="176.24" width="397" height="24" as="geometry" />
        </mxCell>
        <mxCell id="1T6ESOc0t_kYryriSd0D-97" value="+selectList(Wrapper&lt;T&lt;) : List&gt;T&gt;" style="text;strokeColor=none;fillColor=none;align=left;verticalAlign=top;spacingLeft=4;spacingRight=4;overflow=hidden;rotatable=0;points=[[0,0.5],[1,0.5]];portConstraint=eastwest;fontSize=17;" vertex="1" parent="1T6ESOc0t_kYryriSd0D-88">
          <mxGeometry y="200.24" width="397" height="24" as="geometry" />
        </mxCell>
        <mxCell id="1T6ESOc0t_kYryriSd0D-98" value="+deleteById(Serializable) : int" style="text;strokeColor=none;fillColor=none;align=left;verticalAlign=top;spacingLeft=4;spacingRight=4;overflow=hidden;rotatable=0;points=[[0,0.5],[1,0.5]];portConstraint=eastwest;fontSize=17;" vertex="1" parent="1T6ESOc0t_kYryriSd0D-88">
          <mxGeometry y="224.24" width="397" height="24" as="geometry" />
        </mxCell>
        <mxCell id="1T6ESOc0t_kYryriSd0D-99" value="+updateById(T) : int" style="text;strokeColor=none;fillColor=none;align=left;verticalAlign=top;spacingLeft=4;spacingRight=4;overflow=hidden;rotatable=0;points=[[0,0.5],[1,0.5]];portConstraint=eastwest;fontSize=17;" vertex="1" parent="1T6ESOc0t_kYryriSd0D-88">
          <mxGeometry y="248.24" width="397" height="24" as="geometry" />
        </mxCell>
        <mxCell id="1T6ESOc0t_kYryriSd0D-100" value="+update(T, Wrapper&lt;T&gt;) : int" style="text;strokeColor=none;fillColor=none;align=left;verticalAlign=top;spacingLeft=4;spacingRight=4;overflow=hidden;rotatable=0;points=[[0,0.5],[1,0.5]];portConstraint=eastwest;fontSize=17;" vertex="1" parent="1T6ESOc0t_kYryriSd0D-88">
          <mxGeometry y="272.24" width="397" height="24" as="geometry" />
        </mxCell>
        <mxCell id="1T6ESOc0t_kYryriSd0D-101" value="" style="dashed=1;startArrow=open;startSize=12;endArrow=none;exitX=1;exitY=0.5;entryX=-0.00029553865131578947;entryY=0.8749899807128723;rounded=0;fontSize=17;exitDx=0;exitDy=0;" edge="1" parent="1" source="1T6ESOc0t_kYryriSd0D-4" target="1T6ESOc0t_kYryriSd0D-59">
          <mxGeometry relative="1" as="geometry" />
        </mxCell>
        <mxCell id="1T6ESOc0t_kYryriSd0D-102" value="" style="dashed=1;startArrow=open;startSize=12;endArrow=none;exitX=0.499327761627907;exitY=0;entryX=0.2784347899222488;entryY=1;rounded=0;fontSize=17;" edge="1" parent="1" source="1T6ESOc0t_kYryriSd0D-7" target="1T6ESOc0t_kYryriSd0D-59">
          <mxGeometry relative="1" as="geometry" />
        </mxCell>
        <mxCell id="1T6ESOc0t_kYryriSd0D-103" value="" style="dashed=1;startArrow=open;startSize=12;endArrow=none;exitX=0.5006078890489913;exitY=0;entryX=0.499327761627907;entryY=1;rounded=0;fontSize=17;" edge="1" parent="1" source="1T6ESOc0t_kYryriSd0D-26" target="1T6ESOc0t_kYryriSd0D-7">
          <mxGeometry relative="1" as="geometry" />
        </mxCell>
        <mxCell id="1T6ESOc0t_kYryriSd0D-104" value="" style="startArrow=open;startSize=12;endArrow=none;exitX=0.5000294811320755;exitY=-0.002066115702479339;entryX=0.59;entryY=1.025;rounded=0;fontSize=17;entryDx=0;entryDy=0;entryPerimeter=0;" edge="1" parent="1" source="1T6ESOc0t_kYryriSd0D-39" target="1T6ESOc0t_kYryriSd0D-62">
          <mxGeometry relative="1" as="geometry" />
        </mxCell>
        <mxCell id="1T6ESOc0t_kYryriSd0D-105" value="" style="dashed=1;startArrow=none;endArrow=block;endSize=16;endFill=0;exitX=0.5025607638888889;exitY=-0.0033333333333333335;entryX=0.49985259433962265;entryY=0.9979338842975206;rounded=0;fontSize=17;" edge="1" parent="1" source="1T6ESOc0t_kYryriSd0D-63" target="1T6ESOc0t_kYryriSd0D-49">
          <mxGeometry relative="1" as="geometry" />
        </mxCell>
        <mxCell id="1T6ESOc0t_kYryriSd0D-106" value="" style="startArrow=open;startSize=12;endArrow=none;exitX=0.5012194113756614;exitY=0;entryX=0.5025607638888889;entryY=0.9966666666666667;rounded=0;fontSize=17;" edge="1" parent="1" source="1T6ESOc0t_kYryriSd0D-88" target="1T6ESOc0t_kYryriSd0D-63">
          <mxGeometry relative="1" as="geometry" />
        </mxCell>
        <mxCell id="1T6ESOc0t_kYryriSd0D-107" value="" style="startArrow=open;startSize=12;endArrow=none;exitX=0.49985259433962265;exitY=-0.002066115702479339;rounded=0;fontSize=17;entryX=0.592;entryY=1.012;entryDx=0;entryDy=0;entryPerimeter=0;" edge="1" parent="1" source="1T6ESOc0t_kYryriSd0D-49" target="1T6ESOc0t_kYryriSd0D-62">
          <mxGeometry relative="1" as="geometry">
            <mxPoint x="920" y="110" as="targetPoint" />
          </mxGeometry>
        </mxCell>
        <mxCell id="1T6ESOc0t_kYryriSd0D-108" value="" style="dashed=1;startArrow=none;endArrow=block;endSize=16;endFill=0;exitX=0.4971713362068966;exitY=-0.0033333333333333335;entryX=0.5000294811320755;entryY=0.9979338842975206;rounded=0;fontSize=17;" edge="1" parent="1" source="1T6ESOc0t_kYryriSd0D-69" target="1T6ESOc0t_kYryriSd0D-39">
          <mxGeometry relative="1" as="geometry" />
        </mxCell>
        <mxCell id="1T6ESOc0t_kYryriSd0D-109" value="" style="startArrow=open;startSize=12;endArrow=none;exitX=0.4986979166666667;exitY=0;entryX=0.4971713362068966;entryY=0.9966666666666667;rounded=0;fontSize=17;" edge="1" parent="1" source="1T6ESOc0t_kYryriSd0D-75" target="1T6ESOc0t_kYryriSd0D-69">
          <mxGeometry relative="1" as="geometry" />
        </mxCell>
      </root>
    </mxGraphModel>
  </diagram>
</mxfile>
